# xmcd CD database file
#
# Track frame offsets:
#	150
#	12110
#	25003
#	35125
#	44323
#	55008
#	65315
#	80510
#	92193
#	101598
#	115253
#	125935
#	134960
#	146593
#	157540
#	169355
#	178658
#	190313
#	202835
#	214100
#	223470
#	233403
#	243525
#	256730
#	265873
#	276983
#	289203
#	304475
#	314128
#	324008
#
# Disc length: 4449 seconds
#
# Revision: 1
# Processed by: cddbd v1.5.1PL0 Copyright (c) Steve Scherf et al.
# Submitted via: CDex 1.51
#
DISCID=c6115f1e
DTITLE=Jim Reeves - Hits And Other Favorites
DYEAR=1900
DGENRE=Country
TTITLE0=Mexican Joe
TTITLE1=Four Wals
TTITLE2=Partners
TTITLE3=I Know One
TTITLE4=He'll Have To Go
TTITLE5=Am I Losing You
TTITLE6=The Blizzard
TTITLE7=Welcome To My World
TTITLE8=My Mary
TTITLE9=What Were You Doing
TTITLE10=Then I'll Stop Loving You
TTITLE11=Overnight
TTITLE12=I Missed You
TTITLE13=Satan Can't Hold Me
TTITLE14=My Final Affair
TTITLE15=You're Free To Go
TTITLE16=Yonder Comes A Sucker
TTITLE17=Bimbo
TTITLE18=Anne Marie
TTITLE19=Billy Bayoe
TTITLE20=Stand At Your Window
TTITLE21=I'm Getting Better
TTITLE22=Danny Boy
TTITLE23=I Won't Forget You
TTITLE24=Gypsy Heart
TTITLE25=Let Me Love You Just A Little
TTITLE26=Blue Side Of Lonesome
TTITLE27=Somewhere Along The Line
TTITLE28=After Awhile
TTITLE29=Snowflake
EXTD=
EXTT0=
EXTT1=
EXTT2=
EXTT3=
EXTT4=
EXTT5=
EXTT6=
EXTT7=
EXTT8=
EXTT9=
EXTT10=
EXTT11=
EXTT12=
EXTT13=
EXTT14=
EXTT15=
EXTT16=
EXTT17=
EXTT18=
EXTT19=
EXTT20=
EXTT21=
EXTT22=
EXTT23=
EXTT24=
EXTT25=
EXTT26=
EXTT27=
EXTT28=
EXTT29=
PLAYORDER=
